<?xml version="1.0" encoding="UTF-8" standalone="no"?>
<!-- Created with Inkscape (http://www.inkscape.org/) -->

<svg
   width="141.93755"
   height="120.97282" >
  <path
     d="m 83.795523,69.115501 15.513433,-37.68751 23.270134,0 0,1.55978 -1.85486,0 c -1.68632,5e-5 -3.03531,0.29514 -4.04698,0.88527 -0.70268,0.39351 -1.26476,1.05396 -1.68624,1.98134 -0.30922,0.67455 -0.46379,2.43105 -0.46372,5.2695 l 0,37.68751 c -7e-5,2.92283 0.1545,4.74959 0.46372,5.48029 0.30907,0.73071 0.94141,1.37007 1.89702,1.9181 0.95546,0.54803 2.23419,0.82204 3.8362,0.82204 l 1.85486,0 0,1.55977 -29.846487,0 0,-1.55977 1.854873,0 c 1.68619,0 3.03518,-0.29509 4.04698,-0.88528 0.70254,-0.39345 1.26462,-1.06795 1.686244,-2.02349 0.30909,-0.67449 0.46366,-2.44504 0.46372,-5.31166 l 0,-42.36683 -21.921157,52.14703 -1.01174,0 -22.258397,-51.76762 0,40.25902 c -1.3e-5,2.81042 0.07025,4.53881 0.21078,5.1852 0.365339,1.4052 1.159277,2.55044 2.381817,3.43572 1.222509,0.88527 3.140607,1.32791 5.754301,1.32791 l 0,1.55977 -19.560407,0 0,-1.55977 0.590185,0 c 1.264678,0.0281 2.445046,-0.17565 3.541108,-0.61126 1.09605,-0.43561 1.925119,-1.01877 2.487207,-1.74948 0.562072,-0.7307 0.997684,-1.75649 1.306837,-3.07739 0.0562,-0.30914 0.0843,-1.74244 0.08431,-4.29992 l 0,-36.16989 c -10e-6,-2.89466 -0.154582,-4.70034 -0.463717,-5.41705 -0.309153,-0.7166 -0.941493,-1.34894 -1.897022,-1.89702 -0.955544,-0.54797 -2.234276,-0.82199 -3.836201,-0.82204 l -1.81271,0 0,-1.55978 23.354451,0 z" />
  <path
     d="m 41.16067,42.576281 c -2e-5,2.81045 -0.770553,5.1993 -2.311602,7.16654 -1.541086,1.96733 -3.395337,2.95097 -5.56276,2.95093 -2.207219,4e-5 -4.081355,-0.9836 -5.622415,-2.95093 -1.541074,-1.96724 -2.311607,-4.35609 -2.311603,-7.16654 -4e-6,-2.78224 0.770529,-5.15704 2.311603,-7.12437 1.54106,-1.96723 3.415196,-2.95088 5.622415,-2.95093 2.167423,5e-5 4.021674,0.9837 5.56276,2.95093 1.541049,1.96733 2.311582,4.34213 2.311602,7.12437 z m 2.147554,39.20518 c -0.517025,2.47316 -1.590801,4.29992 -3.221331,5.48029 -1.173219,0.84313 -2.445841,1.26469 -3.817872,1.26469 l -11.781718,0 c -2.843521,0 -4.26528,-1.68624 -4.26528,-5.05873 0,-0.95553 0.139194,-1.98133 0.41758,-3.0774 l 5.189921,-20.53002 10.827249,0 -5.518019,21.92117 z"/>
  <path
     d="M 2.6875429,0.00407137 A 3.0003,3.0003 0 0 0 4.2906385e-5,3.0040713 l 0,114.9687487 a 3.0003,3.0003 0 0 0 2.999999993615,3 l 135.9375071,0 a 3.0003,3.0003 0 0 0 3,-3 l 0,-114.9687487 a 3.0003,3.0003 0 0 0 -3,-2.99999993 l -135.9375071,0 a 3.0003,3.0003 0 0 0 -0.3125,0 z m 3.3124996,5.99999993 129.9375075,0 0,108.9687487 -129.9375075,0 0,-108.9687487 z" />
</svg>
