<?xml version="1.0" encoding="UTF-8" standalone="no"?>
<!-- Created with Inkscape (http://www.inkscape.org/) -->

<svg
   width="236.02211"
   height="72.255562" >
  <path
     d="m 20.938647,10.07531 c -2.1e-5,2.81045 -0.770554,5.19929 -2.311603,7.16653 -1.541085,1.96733 -3.395337,2.95097 -5.56276,2.95093 -2.207219,4e-5 -4.081355,-0.9836 -5.622415,-2.95093 C 5.900796,15.2746 5.130261,12.88576 5.130267,10.07531 5.130261,7.29305 5.900796,4.91826 7.441869,2.95093 8.982929,0.9837 10.857065,6e-5 13.064284,0 c 2.167423,6e-5 4.021675,0.9837 5.56276,2.95093 1.541049,1.96733 2.311582,4.34212 2.311603,7.12438 z m 2.147554,39.20517 c -0.517027,2.47316 -1.590802,4.29992 -3.221331,5.48029 -1.173219,0.84313 -2.445842,1.26469 -3.817873,1.26469 l -11.781718,0 C 1.421759,56.02546 0,54.33922 0,50.96673 0,50.0112 0.139193,48.98539 0.417579,47.88933 L 5.6075,27.35931 l 10.82725,0 -5.51802,21.92117 z" />
  <path
     d="m 81.607037,49.28048 c -0.57671,4.49665 -2.83363,6.74498 -6.77076,6.74498 l -12.10982,0 c -0.95451,0 -1.8344,-0.55506 -2.6397,-1.66516 -0.80536,-1.11011 -1.20803,-2.36777 -1.208,-3.77297 -3e-5,-0.44967 0.0397,-0.88528 0.11931,-1.30685 0.43743,-2.07969 1.09363,-5.10088 1.9686,-9.06356 L 50.885086,52.1471 c -2.545273,2.97903 -4.72265,4.46854 -6.532141,4.46854 -2.704344,0 -4.056506,-1.43331 -4.056489,-4.29992 -1.7e-5,-0.92742 0.149119,-1.93918 0.447407,-3.03524 l 2.38617,-9.06356 -11.871198,13.99583 c -1.01413,1.20847 -2.276811,1.81271 -3.788046,1.81271 l -6.084735,0 7.128685,-28.66615 10.767595,0 -3.370466,13.48995 9.156933,-10.62333 c 2.286719,-2.66987 4.851852,-4.00481 7.695398,-4.00483 2.346366,2e-5 3.519565,1.27875 3.519599,3.8362 -3.4e-5,0.73073 -0.1094,1.5317 -0.3281,2.40289 l -2.147551,8.38907 8.91831,-10.70764 c 2.1674,-2.61366 4.57346,-3.9205 7.21817,-3.92052 2.50543,2e-5 3.75817,1.50359 3.75822,4.51069 -5e-5,1.01178 -0.15913,2.13594 -0.47724,3.37249 l -3.8477,15.1762 z" />
  <path
     d="m 120.65076,49.28048 c -0.17901,2.16402 -0.98434,3.86432 -2.416,5.10089 -1.27266,1.09606 -2.77396,1.64409 -4.5039,1.64409 l -16.255793,0 c -2.44583,0 -3.69857,-1.78461 -3.75822,-5.35382 0.91469,-0.53398 1.83933,-1.0539 2.77393,-1.55979 1.31238,-0.8431 2.30661,-1.86891 2.98271,-3.07739 0.914683,-1.60192 1.372043,-3.65352 1.372053,-6.15479 -1e-5,-1.5457 -0.50708,-2.90875 -1.521183,-4.08914 -1.01414,-1.18035 -2.13763,-1.74243 -3.37047,-1.68625 l -9.33589,38.15128 -10.82725,0 13.45204,-55.09802 10.797413,0 -2.475653,10.20177 c 4.474053,2e-5 7.436883,0.29512 8.888503,0.88528 3.53945,1.37712 5.23959,4.59503 5.10043,9.65374 -0.0796,2.24835 -0.78547,4.51072 -2.11773,6.78714 -1.37207,2.36074 -2.9529,3.89241 -4.74251,4.59501 z" />
  <path
     d="m 155.66781,49.28048 c -5e-5,1.96729 -0.7656,3.62543 -2.2967,4.97443 -1.35219,1.18036 -2.76401,1.77055 -4.23544,1.77055 l -11.4238,0 c -3.0225,0 -4.53374,-1.77055 -4.53372,-5.31167 -2e-5,-0.89932 0.12923,-1.86892 0.38775,-2.90877 l 3.37047,-13.70074 -6.35318,0 -3.31082,12.09881 c -0.55677,2.05161 -1.7598,3.0774 -3.60908,3.07739 l -3.16168,0 3.90736,-15.1762 c -1.23286,-0.39342 -2.23206,-1.27168 -2.99763,-2.63475 -0.76556,-1.36302 -1.14835,-2.92982 -1.14835,-4.70041 0,-3.23193 1.06384,-5.7332 3.19151,-7.50379 1.76974,-1.46137 3.87752,-2.19207 6.32335,-2.1921 l 4.83199,0 -2.50547,10.28608 16.4944,0 -5.42854,21.92117 z" />
  <path
     d="m 206.46342,27.35931 c -0.79544,4.49668 -3.18161,6.74499 -7.15851,6.74497 l -18.67179,0 c 0.65617,0.61832 1.19306,1.7495 1.61067,3.39358 0.41755,1.64409 0.58657,3.07037 0.50706,4.27883 -0.27842,4.6934 -1.73994,8.37502 -4.38459,11.04491 -2.52538,2.55746 -5.80636,3.85025 -9.84295,3.87835 -4.69281,0.0562 -8.30189,-1.25063 -10.82725,-3.92051 -2.24698,-2.36074 -3.37047,-5.46624 -3.37047,-9.31651 0,-0.75879 0.0497,-1.5176 0.14914,-2.27642 0.517,-4.24369 2.00836,-7.57402 4.47407,-9.991 2.62478,-2.55743 6.1245,-3.83618 10.49915,-3.8362 z m -32.51157,6.74497 -6.83042,0 -2.68444,10.79197 c -0.1392,0.56209 -0.2088,1.09607 -0.20879,1.60193 -10e-6,2.41695 1.59077,3.62542 4.77234,3.62542 0.3778,0 0.7059,-0.014 0.9843,-0.0422 z" />
  <path
     d="m 236.02211,27.35931 c -0.49717,2.47318 -1.64054,4.29995 -3.43012,5.48029 -1.25278,0.84315 -2.595,1.2647 -4.02666,1.26468 l -12.5274,0 -12.61688,21.92118 -11.93085,0 -1.28256,-28.66615 10.82725,0 0.17895,20.7408 11.18518,-20.7408 z" />
</svg>
