<?xml version="1.0" encoding="UTF-8" standalone="no"?>
<!-- Created with Inkscape (http://www.inkscape.org/) -->

<svg width="559.00006" height="118.00407" >
  <path
     d="m 39.678903,41.087111 c -2.1e-5,2.81044 -0.770554,5.19929 -2.311603,7.16653 -1.541085,1.96732 -3.395337,2.95096 -5.56276,2.95092 -2.207219,4e-5 -4.081355,-0.9836 -5.622415,-2.95092 -1.541073,-1.96724 -2.311608,-4.35609 -2.311602,-7.16653 -6e-6,-2.78227 0.770529,-5.15705 2.311602,-7.12438 1.54106,-1.96724 3.415196,-2.95088 5.622415,-2.95094 2.167423,6e-5 4.021675,0.9837 5.56276,2.95094 1.541049,1.96733 2.311582,4.34211 2.311603,7.12438 z m 2.147554,39.20517 c -0.517027,2.47316 -1.590802,4.29992 -3.221331,5.48029 -1.173219,0.84313 -2.445842,1.26468 -3.817873,1.26468 l -11.781718,0 c -2.84352,0 -4.265279,-1.68624 -4.265279,-5.05873 0,-0.95553 0.139193,-1.98132 0.417579,-3.07739 l 5.189921,-20.53002 10.82725,0 -5.51802,21.92117 z" />
  <path
     d="m 100.34729,80.292281 c -0.576707,4.49665 -2.833627,6.74497 -6.770757,6.74497 l -12.10982,0 c -0.95451,0 -1.8344,-0.55505 -2.6397,-1.66516 -0.80536,-1.11011 -1.20803,-2.36776 -1.208,-3.77298 -3e-5,-0.44965 0.0397,-0.88527 0.11931,-1.30683 0.43743,-2.07969 1.09363,-5.10087 1.9686,-9.06356 l -10.081581,11.93017 c -2.545273,2.97904 -4.72265,4.46855 -6.532141,4.46855 -2.704344,0 -4.056506,-1.4333 -4.056489,-4.29993 -1.7e-5,-0.92742 0.149119,-1.93917 0.447407,-3.03523 l 2.38617,-9.06356 -11.871198,13.99582 c -1.01413,1.20848 -2.276811,1.81271 -3.788046,1.81271 l -6.084735,0 7.128685,-28.66614 10.767595,0 -3.370466,13.48994 9.156933,-10.62333 c 2.286719,-2.66986 4.851852,-4.0048 7.695398,-4.00483 2.346366,3e-5 3.519565,1.27876 3.519599,3.8362 -3.4e-5,0.73074 -0.1094,1.5317 -0.3281,2.4029 l -2.147551,8.38906 8.91831,-10.70764 c 2.1674,-2.61365 4.57346,-3.92049 7.21817,-3.92052 2.50543,3e-5 3.75817,1.5036 3.75822,4.51071 -5e-5,1.01176 -0.15913,2.13593 -0.47724,3.37248 l -3.8477,15.1762 z" />
  <path
     d="m 139.39101,80.292281 c -0.17901,2.16401 -0.98434,3.86431 -2.416,5.10088 -1.27266,1.09607 -2.77396,1.64409 -4.5039,1.64409 l -16.25579,0 c -2.44583,0 -3.69857,-1.78461 -3.75822,-5.35382 0.91469,-0.53397 1.83933,-1.0539 2.77393,-1.55978 1.31238,-0.84311 2.30661,-1.8689 2.98271,-3.07739 0.91468,-1.60192 1.37204,-3.65351 1.37205,-6.15479 -1e-5,-1.54571 -0.50708,-2.90876 -1.52118,-4.08915 -1.01414,-1.18034 -2.13763,-1.74242 -3.37047,-1.68624 l -9.33589,38.151279 -10.827247,0 13.452037,-55.098029 10.79741,0 -2.47565,10.20178 c 4.47405,2e-5 7.43688,0.29512 8.8885,0.88527 3.53945,1.37713 5.23959,4.59505 5.10043,9.65375 -0.0796,2.24834 -0.78547,4.51072 -2.11773,6.78713 -1.37207,2.36076 -2.9529,3.89242 -4.74251,4.59502 z" />
  <path
     d="m 174.40806,80.292281 c -5e-5,1.96728 -0.7656,3.62542 -2.2967,4.97442 -1.35219,1.18037 -2.76401,1.77055 -4.23544,1.77055 l -11.4238,0 c -3.0225,0 -4.53374,-1.77055 -4.53372,-5.31167 -2e-5,-0.89932 0.12923,-1.8689 0.38775,-2.90876 l 3.37047,-13.70074 -6.35318,0 -3.31082,12.09881 c -0.55677,2.0516 -1.7598,3.0774 -3.60908,3.07739 l -3.16168,0 3.90736,-15.1762 c -1.23286,-0.39343 -2.23206,-1.27168 -2.99763,-2.63476 -0.76556,-1.36302 -1.14835,-2.92982 -1.14835,-4.7004 0,-3.23194 1.06384,-5.73319 3.19151,-7.50379 1.76974,-1.46137 3.87752,-2.19208 6.32335,-2.19211 l 4.83199,0 -2.50547,10.28609 16.4944,0 -5.42854,21.92117 z" />
  <path
     d="m 225.20367,58.371111 c -0.79544,4.49667 -3.18161,6.745 -7.15851,6.74497 l -18.67179,0 c 0.65617,0.61832 1.19306,1.7495 1.61067,3.39357 0.41755,1.64411 0.58657,3.07038 0.50706,4.27884 -0.27842,4.69339 -1.73994,8.37502 -4.38459,11.0449 -2.52538,2.55747 -5.80636,3.85026 -9.84295,3.87836 -4.69281,0.0562 -8.30189,-1.25062 -10.82725,-3.92052 -2.24698,-2.36073 -3.37047,-5.46622 -3.37047,-9.31649 0,-0.7588 0.0497,-1.51761 0.14914,-2.27644 0.517,-4.24369 2.00836,-7.57402 4.47407,-9.99098 2.62478,-2.55746 6.1245,-3.83619 10.49915,-3.83621 z m -32.51157,6.74497 -6.83042,0 -2.68444,10.79196 c -0.1392,0.5621 -0.2088,1.09608 -0.20879,1.60193 -1e-5,2.41697 1.59077,3.62544 4.77234,3.62544 0.3778,0 0.7059,-0.014 0.9843,-0.0422 z" />
  <path
     d="m 254.76236,58.371111 c -0.49717,2.47319 -1.64054,4.29994 -3.43012,5.48029 -1.25278,0.84314 -2.595,1.26471 -4.02666,1.26468 l -12.5274,0 -12.61688,21.92117 -11.93085,0 -1.28256,-28.66614 10.82725,0 0.17895,20.7408 11.18518,-20.7408 z" />
</svg>
