<?xml version="1.0" encoding="UTF-8" standalone="no"?>

<svg xmlns="http://www.w3.org/2000/svg" version="1.1"
   width="559.00006"
   height="118.00407">

  <style>
    #border {
      fill:none;
      stroke:black;
      stroke-width:6;
      stroke-linecap:round;
      stroke-linejoin:round;
      stroke-miterlimit:4"
    }
  </style>

  <path
     d="m 290.31378,67.626311 15.51342,-37.68751 23.27014,0 0,1.55977 -1.85487,0 c -1.68631,6e-5 -3.03531,0.29515 -4.04698,0.88528 -0.70267,0.39351 -1.26475,1.05395 -1.68624,1.98133 -0.30921,0.67455 -0.46379,2.43105 -0.46371,5.26951 l 0,37.68751 c -8e-5,2.92282 0.1545,4.74958 0.46371,5.48028 0.30907,0.73071 0.94141,1.37008 1.89702,1.9181 0.95547,0.54803 2.2342,0.82205 3.8362,0.82205 l 1.85487,0 0,1.55977 -29.84648,0 0,-1.55977 1.85486,0 c 1.68619,0 3.03519,-0.29509 4.04699,-0.88528 0.70254,-0.39345 1.26462,-1.06795 1.68624,-2.02349 0.30908,-0.67449 0.46366,-2.44504 0.46371,-5.31166 l 0,-42.36683 -21.92114,52.14703 -1.01175,0 -22.25839,-51.76763 0,40.25903 c -10e-6,2.81041 0.0703,4.53881 0.21078,5.18519 0.36534,1.40521 1.15928,2.55045 2.38182,3.43572 1.22251,0.88528 3.1406,1.32792 5.7543,1.32792 l 0,1.55977 -19.56041,0 0,-1.55977 0.59019,0 c 1.26467,0.0281 2.44504,-0.17565 3.5411,-0.61127 1.09605,-0.43561 1.92512,-1.01876 2.48721,-1.74947 0.56207,-0.7307 0.99768,-1.7565 1.30684,-3.07739 0.0562,-0.30914 0.0843,-1.74244 0.0843,-4.29992 l 0,-36.16989 c -10e-6,-2.89466 -0.15458,-4.70035 -0.46372,-5.41705 -0.30915,-0.7166 -0.94149,-1.34894 -1.89702,-1.89702 -0.95554,-0.54798 -2.23427,-0.82199 -3.8362,-0.82205 l -1.81271,0 0,-1.55977 23.35445,0 z" />
  <path
     d="m 355.27625,81.284871 c -4.80581,4.24371 -9.11977,6.36556 -12.94191,6.36556 -2.24833,0 -4.11725,-0.73773 -5.60675,-2.21319 -1.48952,-1.47546 -2.23428,-3.3233 -2.23427,-5.54352 -10e-6,-3.00713 1.29278,-5.71214 3.87835,-8.11504 2.58557,-2.40288 8.22042,-5.59971 16.90458,-9.5905 l 0,-3.96267 c -2e-5,-2.979 -0.16162,-4.85494 -0.48479,-5.62784 -0.32323,-0.77282 -0.93449,-1.44732 -1.83379,-2.02349 -0.89935,-0.57609 -1.9111,-0.86416 -3.03524,-0.86419 -1.82678,3e-5 -3.33034,0.40754 -4.5107,1.22252 -0.73071,0.50591 -1.09607,1.09609 -1.09605,1.77055 -2e-5,0.59022 0.39344,1.32093 1.18037,2.19212 1.06793,1.2085 1.60191,2.37482 1.60193,3.49895 -2e-5,1.37713 -0.51292,2.55047 -1.5387,3.52003 -1.02581,0.96961 -2.36778,1.45441 -4.0259,1.45439 -1.77057,2e-5 -3.25305,-0.53396 -4.44747,-1.60193 -1.19442,-1.06793 -1.79163,-2.31856 -1.79163,-3.75189 0,-2.02346 0.80096,-3.95561 2.4029,-5.79646 1.60192,-1.84078 3.83619,-3.253 6.70281,-4.23668 2.86659,-0.9836 5.84562,-1.47542 8.93708,-1.47546 3.73781,4e-5 6.69576,0.79397 8.87385,2.38181 2.17803,1.58792 3.59025,3.30929 4.23668,5.16412 0.39342,1.1804 0.59015,3.89244 0.59019,8.13612 l 0,15.30264 c -4e-5,1.79867 0.0702,2.92985 0.21078,3.39356 0.14048,0.46373 0.35126,0.808 0.63234,1.03283 0.281,0.22483 0.6042,0.33725 0.96959,0.33724 0.73066,1e-5 1.47542,-0.51991 2.23427,-1.55977 l 1.26468,1.01175 c -1.40524,2.0797 -2.85962,3.59029 -4.36315,4.53177 -1.5036,0.94149 -3.21092,1.41223 -5.12196,1.41223 -2.24835,0 -4.00485,-0.52695 -5.26951,-1.58085 -1.2647,-1.0539 -2.03756,-2.6488 -2.31858,-4.78471 z m 0,-3.0774 0,-13.19484 c -3.40061,1.99541 -5.92997,4.13131 -7.58809,6.40772 -1.09607,1.51763 -1.6441,3.0493 -1.64408,4.59501 -2e-5,1.29279 0.4637,2.43101 1.39114,3.41464 0.70259,0.75882 1.68623,1.13822 2.95093,1.13821 1.40518,10e-6 3.03521,-0.7869 4.8901,-2.36074 z" />
  <path
     d="m 401.60575,46.590441 0.63234,13.44778 -1.43331,0 c -1.71437,-3.99074 -3.49195,-6.71683 -5.33274,-8.17828 -1.84083,-1.46137 -3.67462,-2.19207 -5.50136,-2.19211 -1.15228,4e-5 -2.13592,0.38647 -2.95093,1.15929 -0.81503,0.7729 -1.22253,1.6652 -1.22252,2.67691 -1e-5,0.75884 0.28103,1.48955 0.84312,2.19211 0.89931,1.1523 3.41462,3.12661 7.54593,5.92293 4.13127,2.79637 6.85033,5.17116 8.1572,7.12437 1.30681,1.95325 1.96022,4.13833 1.96025,6.55527 -3e-5,2.19212 -0.54805,4.34208 -1.64408,6.44987 -1.09609,2.10781 -2.64181,3.72379 -4.63717,4.84795 -1.99541,1.12416 -4.20157,1.68624 -6.6185,1.68624 -1.88298,0 -4.39829,-0.59019 -7.54593,-1.77055 -0.84313,-0.30915 -1.41926,-0.46372 -1.7284,-0.46372 -0.92744,0 -1.7003,0.7026 -2.31858,2.1078 l -1.39115,0 -0.6745,-14.16443 1.43331,0 c 1.26467,3.70974 3.0001,6.49204 5.20627,8.3469 2.20615,1.85487 4.29288,2.7823 6.26017,2.7823 1.34898,0 2.45206,-0.41454 3.30925,-1.24361 0.85716,-0.82906 1.28574,-1.83378 1.28576,-3.01415 -2e-5,-1.34899 -0.42158,-2.51531 -1.26468,-3.49896 -0.84314,-0.98363 -2.72611,-2.47314 -5.64891,-4.46854 -4.29993,-2.97901 -7.08222,-5.25543 -8.3469,-6.82928 -1.85487,-2.30451 -2.7823,-4.84792 -2.7823,-7.63024 0,-3.03521 1.04688,-5.78237 3.14063,-8.24151 2.09374,-2.45906 5.12195,-3.68861 9.08463,-3.68865 2.13589,4e-5 4.20153,0.51996 6.19694,1.55977 0.75878,0.4216 1.37707,0.63238 1.85486,0.63234 0.50585,4e-5 0.91336,-0.10535 1.22253,-0.31617 0.30912,-0.21074 0.80094,-0.80795 1.47546,-1.79163 z" />
  <path
     d="m 425.88763,33.269131 0,14.41737 9.35864,0 0,4.17344 -9.35864,0 0,24.32404 c -2e-5,2.27644 0.10537,3.74487 0.31617,4.40531 0.21076,0.66045 0.58314,1.19443 1.11714,1.60193 0.53395,0.40751 1.02577,0.61127 1.47546,0.61126 1.82674,1e-5 3.55513,-1.39114 5.18519,-4.17345 l 1.26468,0.92744 c -2.27645,5.39597 -5.97213,8.09396 -11.08704,8.09396 -2.50127,0 -4.6161,-0.69558 -6.34448,-2.08673 -1.72841,-1.39114 -2.83149,-2.94389 -3.30925,-4.65824 -0.28105,-0.95553 -0.42157,-3.5411 -0.42156,-7.75671 l 0,-21.28881 -5.14304,0 0,-1.47546 c 3.5411,-2.50122 6.55526,-5.12894 9.04247,-7.88318 2.48719,-2.75415 4.65823,-5.83153 6.51311,-9.23217 z" />
  <path
     d="m 472.47006,65.982221 -21.62605,0 c 0.25292,5.22737 1.64406,9.35865 4.17344,12.39388 1.93916,2.33264 4.27179,3.49896 6.99791,3.49895 1.68621,1e-5 3.21788,-0.47074 4.59501,-1.41223 1.37706,-0.94147 2.85252,-2.63474 4.42638,-5.0798 l 1.43331,0.92743 c -2.13594,4.35613 -4.49668,7.44055 -7.08222,9.25325 -2.5856,1.81271 -5.57867,2.71907 -8.97924,2.71907 -5.84565,0 -10.27203,-2.24832 -13.27915,-6.74497 -2.41695,-3.62541 -3.62543,-8.12205 -3.62542,-13.48993 -10e-6,-6.57632 1.77757,-11.81069 5.33274,-15.70313 3.55515,-3.89237 7.72156,-5.83857 12.49927,-5.83861 3.99074,4e-5 7.45456,1.63709 10.39146,4.91118 2.93684,3.27415 4.51769,8.12911 4.74256,14.56491 z m -10.37039,-2.82446 c -3e-5,-4.52472 -0.24594,-7.63021 -0.73773,-9.31648 -0.49185,-1.68621 -1.25768,-2.96494 -2.29751,-3.8362 -0.5902,-0.50584 -1.37711,-0.75877 -2.36073,-0.75881 -1.46143,4e-5 -2.65585,0.71669 -3.58327,2.14996 -1.65815,2.50129 -2.48722,5.92998 -2.48721,10.28607 l 0,1.47546 z" />
  <path
     d="m 493.71671,47.686501 0,8.93708 c 2.61365,-4.07505 4.90413,-6.78006 6.87143,-8.11504 1.96726,-1.3349 3.86428,-2.00237 5.69107,-2.00241 1.57379,4e-5 2.83145,0.48483 3.77297,1.45438 0.94145,0.96963 1.41219,2.3397 1.41223,4.11021 -4e-5,1.88301 -0.45673,3.34442 -1.37008,4.38423 -0.91341,1.03988 -2.01649,1.55981 -3.30925,1.55978 -1.48954,3e-5 -2.78232,-0.47774 -3.87835,-1.43331 -1.09609,-0.9555 -1.74248,-1.48948 -1.93918,-1.60193 -0.28107,-0.16859 -0.60426,-0.2529 -0.96959,-0.25293 -0.81504,3e-5 -1.5879,0.30917 -2.31858,0.92743 -1.15229,0.95557 -2.02351,2.31861 -2.61368,4.08914 -0.89935,2.72611 -1.34901,5.73324 -1.34899,9.02139 l 0,9.06355 0.0422,2.36074 c -2e-5,1.60193 0.0983,2.62773 0.29509,3.07739 0.33723,0.75881 0.83607,1.31387 1.49654,1.66516 0.66042,0.35131 1.77755,0.56911 3.3514,0.65342 l 0,1.51762 -21.2888,0 0,-1.51762 c 1.71434,-0.14052 2.87363,-0.61126 3.47787,-1.41223 0.60423,-0.80096 0.90635,-2.91578 0.90636,-6.34448 l 0,-21.79468 c -10e-6,-2.24829 -0.11243,-3.68159 -0.33725,-4.29991 -0.28105,-0.78688 -0.68856,-1.36301 -1.22253,-1.7284 -0.53398,-0.36532 -1.47546,-0.61825 -2.82445,-0.75881 l 0,-1.55977 z" />
  <path
     d="m 540.55207,46.590441 0.63234,13.44778 -1.43331,0 c -1.71437,-3.99074 -3.49195,-6.71683 -5.33274,-8.17828 -1.84083,-1.46137 -3.67462,-2.19207 -5.50136,-2.19211 -1.15228,4e-5 -2.13592,0.38647 -2.95093,1.15929 -0.81503,0.7729 -1.22253,1.6652 -1.22252,2.67691 -10e-6,0.75884 0.28103,1.48955 0.84312,2.19211 0.89931,1.1523 3.41462,3.12661 7.54593,5.92293 4.13127,2.79637 6.85033,5.17116 8.1572,7.12437 1.3068,1.95325 1.96022,4.13833 1.96025,6.55527 -3e-5,2.19212 -0.54806,4.34208 -1.64408,6.44987 -1.09609,2.10781 -2.64181,3.72379 -4.63717,4.84795 -1.99541,1.12416 -4.20157,1.68624 -6.6185,1.68624 -1.88298,0 -4.39829,-0.59019 -7.54593,-1.77055 -0.84313,-0.30915 -1.41926,-0.46372 -1.7284,-0.46372 -0.92744,0 -1.7003,0.7026 -2.31858,2.1078 l -1.39115,0 -0.6745,-14.16443 1.43331,0 c 1.26467,3.70974 3.0001,6.49204 5.20627,8.3469 2.20615,1.85487 4.29288,2.7823 6.26017,2.7823 1.34898,0 2.45206,-0.41454 3.30925,-1.24361 0.85716,-0.82906 1.28574,-1.83378 1.28576,-3.01415 -2e-5,-1.34899 -0.42158,-2.51531 -1.26468,-3.49896 -0.84314,-0.98363 -2.72611,-2.47314 -5.64891,-4.46854 -4.29993,-2.97901 -7.08222,-5.25543 -8.3469,-6.82928 -1.85487,-2.30451 -2.7823,-4.84792 -2.7823,-7.63024 0,-3.03521 1.04688,-5.78237 3.14063,-8.24151 2.09374,-2.45906 5.12195,-3.68861 9.08463,-3.68865 2.13589,4e-5 4.20153,0.51996 6.19694,1.55977 0.75878,0.4216 1.37707,0.63238 1.85486,0.63234 0.50585,4e-5 0.91336,-0.10535 1.22253,-0.31617 0.30912,-0.21074 0.80094,-0.80795 1.47546,-1.79163 z" />
  <path
     d="m 39.678903,41.087111 c -2.1e-5,2.81044 -0.770554,5.19929 -2.311603,7.16653 -1.541085,1.96732 -3.395337,2.95096 -5.56276,2.95092 -2.207219,4e-5 -4.081355,-0.9836 -5.622415,-2.95092 -1.541073,-1.96724 -2.311608,-4.35609 -2.311602,-7.16653 -6e-6,-2.78227 0.770529,-5.15705 2.311602,-7.12438 1.54106,-1.96724 3.415196,-2.95088 5.622415,-2.95094 2.167423,6e-5 4.021675,0.9837 5.56276,2.95094 1.541049,1.96733 2.311582,4.34211 2.311603,7.12438 z m 2.147554,39.20517 c -0.517027,2.47316 -1.590802,4.29992 -3.221331,5.48029 -1.173219,0.84313 -2.445842,1.26468 -3.817873,1.26468 l -11.781718,0 c -2.84352,0 -4.265279,-1.68624 -4.265279,-5.05873 0,-0.95553 0.139193,-1.98132 0.417579,-3.07739 l 5.189921,-20.53002 10.82725,0 -5.51802,21.92117 z" />
  <path
     d="m 100.34729,80.292281 c -0.576707,4.49665 -2.833627,6.74497 -6.770757,6.74497 l -12.10982,0 c -0.95451,0 -1.8344,-0.55505 -2.6397,-1.66516 -0.80536,-1.11011 -1.20803,-2.36776 -1.208,-3.77298 -3e-5,-0.44965 0.0397,-0.88527 0.11931,-1.30683 0.43743,-2.07969 1.09363,-5.10087 1.9686,-9.06356 l -10.081581,11.93017 c -2.545273,2.97904 -4.72265,4.46855 -6.532141,4.46855 -2.704344,0 -4.056506,-1.4333 -4.056489,-4.29993 -1.7e-5,-0.92742 0.149119,-1.93917 0.447407,-3.03523 l 2.38617,-9.06356 -11.871198,13.99582 c -1.01413,1.20848 -2.276811,1.81271 -3.788046,1.81271 l -6.084735,0 7.128685,-28.66614 10.767595,0 -3.370466,13.48994 9.156933,-10.62333 c 2.286719,-2.66986 4.851852,-4.0048 7.695398,-4.00483 2.346366,3e-5 3.519565,1.27876 3.519599,3.8362 -3.4e-5,0.73074 -0.1094,1.5317 -0.3281,2.4029 l -2.147551,8.38906 8.91831,-10.70764 c 2.1674,-2.61365 4.57346,-3.92049 7.21817,-3.92052 2.50543,3e-5 3.75817,1.5036 3.75822,4.51071 -5e-5,1.01176 -0.15913,2.13593 -0.47724,3.37248 l -3.8477,15.1762 z" />
  <path
     d="m 139.39101,80.292281 c -0.17901,2.16401 -0.98434,3.86431 -2.416,5.10088 -1.27266,1.09607 -2.77396,1.64409 -4.5039,1.64409 l -16.25579,0 c -2.44583,0 -3.69857,-1.78461 -3.75822,-5.35382 0.91469,-0.53397 1.83933,-1.0539 2.77393,-1.55978 1.31238,-0.84311 2.30661,-1.8689 2.98271,-3.07739 0.91468,-1.60192 1.37204,-3.65351 1.37205,-6.15479 -1e-5,-1.54571 -0.50708,-2.90876 -1.52118,-4.08915 -1.01414,-1.18034 -2.13763,-1.74242 -3.37047,-1.68624 l -9.33589,38.151279 -10.827247,0 13.452037,-55.098029 10.79741,0 -2.47565,10.20178 c 4.47405,2e-5 7.43688,0.29512 8.8885,0.88527 3.53945,1.37713 5.23959,4.59505 5.10043,9.65375 -0.0796,2.24834 -0.78547,4.51072 -2.11773,6.78713 -1.37207,2.36076 -2.9529,3.89242 -4.74251,4.59502 z" />
  <path
     d="m 174.40806,80.292281 c -5e-5,1.96728 -0.7656,3.62542 -2.2967,4.97442 -1.35219,1.18037 -2.76401,1.77055 -4.23544,1.77055 l -11.4238,0 c -3.0225,0 -4.53374,-1.77055 -4.53372,-5.31167 -2e-5,-0.89932 0.12923,-1.8689 0.38775,-2.90876 l 3.37047,-13.70074 -6.35318,0 -3.31082,12.09881 c -0.55677,2.0516 -1.7598,3.0774 -3.60908,3.07739 l -3.16168,0 3.90736,-15.1762 c -1.23286,-0.39343 -2.23206,-1.27168 -2.99763,-2.63476 -0.76556,-1.36302 -1.14835,-2.92982 -1.14835,-4.7004 0,-3.23194 1.06384,-5.73319 3.19151,-7.50379 1.76974,-1.46137 3.87752,-2.19208 6.32335,-2.19211 l 4.83199,0 -2.50547,10.28609 16.4944,0 -5.42854,21.92117 z" />
  <path
     d="m 225.20367,58.371111 c -0.79544,4.49667 -3.18161,6.745 -7.15851,6.74497 l -18.67179,0 c 0.65617,0.61832 1.19306,1.7495 1.61067,3.39357 0.41755,1.64411 0.58657,3.07038 0.50706,4.27884 -0.27842,4.69339 -1.73994,8.37502 -4.38459,11.0449 -2.52538,2.55747 -5.80636,3.85026 -9.84295,3.87836 -4.69281,0.0562 -8.30189,-1.25062 -10.82725,-3.92052 -2.24698,-2.36073 -3.37047,-5.46622 -3.37047,-9.31649 0,-0.7588 0.0497,-1.51761 0.14914,-2.27644 0.517,-4.24369 2.00836,-7.57402 4.47407,-9.99098 2.62478,-2.55746 6.1245,-3.83619 10.49915,-3.83621 z m -32.51157,6.74497 -6.83042,0 -2.68444,10.79196 c -0.1392,0.5621 -0.2088,1.09608 -0.20879,1.60193 -1e-5,2.41697 1.59077,3.62544 4.77234,3.62544 0.3778,0 0.7059,-0.014 0.9843,-0.0422 z" />
  <path
     d="m 254.76236,58.371111 c -0.49717,2.47319 -1.64054,4.29994 -3.43012,5.48029 -1.25278,0.84314 -2.595,1.26471 -4.02666,1.26468 l -12.5274,0 -12.61688,21.92117 -11.93085,0 -1.28256,-28.66614 10.82725,0 0.17895,20.7408 11.18518,-20.7408 z" />
  <path
     id="border"
     d="m 3.0000429,3.0040714 552.9999971,0 0,111.9999986 -552.9999971,0 z" />
</svg>
